<svg width="1438" height="630" viewBox="0 0 1438 630" fill="none" xmlns="http://www.w3.org/2000/svg">
<path fill-rule="evenodd" clip-rule="evenodd" d="M0 45.1112H59.9167C119.833 45.1112 239.667 45.1112 359.5 32.0981C479.333 19.0851 599.167 -6.94091 719 1.73443C838.833 10.4098 958.667 53.7865 1078.5 66.7995C1198.33 79.8125 1318.17 62.4619 1378.08 53.7865L1438 45.1112V175.241H1378.08C1318.17 175.241 1198.33 175.241 1078.5 175.241C958.667 175.241 838.833 175.241 719 175.241C599.167 175.241 479.333 175.241 359.5 175.241C239.667 175.241 119.833 175.241 59.9167 175.241H0V45.1112Z" fill="#C4C4C4" fill-opacity="0.09"/>
<rect y="175.241" width="1438" height="454.759" fill="#C4C4C4" fill-opacity="0.09"/>
</svg>
