<svg width="434" height="380" viewBox="0 0 434 380" fill="none" xmlns="http://www.w3.org/2000/svg">
<rect x="1.5" y="1.5" width="380" height="377" rx="13.5" fill="#F8F8F8" stroke="#9F0006" stroke-width="3"/>
<rect x="333.5" y="204.5" width="99" height="99" rx="49.5" fill="#FAFAFA"/>
<path d="M372.891 264.066H393.023V267.421H372.891V264.066Z" fill="#9F0006"/>
<path d="M393.023 270.777H372.891V274.132H393.023V270.777Z" fill="#9F0006"/>
<path d="M378.431 251.386C378.649 250.786 378.583 250.053 378.404 249.385C378.188 248.616 377.842 247.89 377.381 247.238C376.406 245.847 374.79 244.57 372.608 244.476C370.348 244.382 368.66 245.817 367.62 247.338C367.12 248.071 366.728 248.871 366.454 249.714C366.214 250.462 366.086 251.227 366.17 251.839C366.19 251.979 366.244 252.112 366.328 252.225C366.412 252.338 366.523 252.428 366.651 252.487C366.779 252.546 366.92 252.571 367.061 252.561C367.201 252.551 367.337 252.506 367.455 252.43C368.127 252 368.829 251.412 369.48 250.868C369.776 250.62 370.063 250.381 370.328 250.172C371.27 249.427 372.005 249.002 372.614 248.972C373.191 248.944 373.859 249.274 374.701 249.905C375.003 250.13 375.294 250.368 375.597 250.616L375.924 250.883C376.334 251.214 376.77 251.553 377.209 251.818C377.315 251.882 377.434 251.921 377.558 251.934C377.681 251.946 377.805 251.931 377.922 251.89C378.039 251.849 378.145 251.782 378.233 251.695C378.321 251.608 378.388 251.503 378.431 251.386Z" fill="#9F0006"/>
<path d="M387.34 251.386C387.122 250.786 387.189 250.053 387.369 249.385C387.557 248.687 387.904 247.937 388.392 247.238C389.365 245.847 390.982 244.57 393.165 244.476C395.423 244.382 397.113 245.817 398.153 247.338C398.68 248.11 399.072 248.945 399.319 249.714C399.557 250.462 399.684 251.227 399.601 251.839C399.581 251.979 399.527 252.111 399.443 252.224C399.359 252.337 399.248 252.427 399.12 252.486C398.993 252.545 398.852 252.57 398.712 252.56C398.571 252.551 398.436 252.506 398.317 252.43C397.646 252 396.941 251.412 396.292 250.868C395.995 250.62 395.71 250.381 395.445 250.172C394.5 249.427 393.767 249.002 393.158 248.972C392.579 248.944 391.912 249.274 391.071 249.905C390.769 250.13 390.477 250.368 390.175 250.616L389.847 250.883C389.437 251.214 389.003 251.553 388.563 251.818C388.457 251.882 388.338 251.922 388.215 251.934C388.091 251.947 387.967 251.932 387.85 251.891C387.733 251.85 387.626 251.783 387.538 251.696C387.45 251.609 387.382 251.503 387.34 251.386Z" fill="#9F0006"/>
<path fill-rule="evenodd" clip-rule="evenodd" d="M412.907 257.884C412.033 264.667 408.876 270.95 403.956 275.701L403.928 275.81C403.614 276.082 403.3 276.347 402.982 276.603C397.464 281.506 390.337 284.209 382.957 284.198C376.368 284.209 369.957 282.054 364.712 278.066C364.075 277.618 363.445 277.145 362.825 276.649L362.759 276.451C357.461 271.692 354.018 265.212 353.042 258.157C351.529 257.057 350.229 255.503 349.965 253.352C349.64 250.685 350.992 247.741 354.049 244.467C354.149 244.359 354.264 244.264 354.389 244.186C358.463 232.324 369.715 223.802 382.957 223.802C396.351 223.802 407.709 232.522 411.662 244.597C414.633 247.818 415.947 250.72 415.625 253.352C415.383 255.33 414.262 256.803 412.907 257.884ZM366.7 275.36C377.404 282.856 390.23 282.613 400.811 274.047L400.947 273.924C401.634 271.131 401.953 269.092 401.898 267.151C401.848 265.403 401.492 263.576 400.631 261.227C393.724 259.78 388.304 259.053 382.948 259.033C377.63 259.015 372.248 259.692 365.427 261.179C364.675 263.673 364.36 265.615 364.366 267.473C364.375 269.515 364.772 271.658 365.67 274.536C366.006 274.818 366.35 275.093 366.7 275.36ZM361.137 269.636C360.835 266.915 361.077 264.376 361.894 261.335C361.381 261.254 360.87 261.161 360.362 261.056C359.313 260.838 358.063 260.523 356.805 260.07C357.602 263.514 359.074 266.765 361.137 269.636ZM402.28 258.147C387.282 254.928 378.54 254.775 363.499 258.169C362.675 258.072 361.856 257.94 361.043 257.771C359.516 257.453 357.708 256.943 356.201 256.166C356.143 255.445 356.114 254.723 356.114 254C356.114 239.174 368.133 227.157 382.957 227.157C397.783 227.157 409.8 239.174 409.8 254C409.8 254.668 409.776 255.329 409.728 255.985L409.707 255.996C408.142 256.869 406.184 257.431 404.549 257.77C403.797 257.926 403.04 258.052 402.279 258.147H402.28ZM404.19 261.254C405.107 264.095 405.391 266.477 405.205 269.025C407.072 266.268 408.408 263.187 409.142 259.939C407.765 260.462 406.379 260.818 405.233 261.056C404.862 261.133 404.512 261.199 404.19 261.254Z" fill="#9F0006"/>
<rect x="333.5" y="204.5" width="99" height="99" rx="49.5" stroke="#9F0006" stroke-width="3"/>
</svg>
