<svg width="39" height="39" viewBox="0 0 39 39" fill="none" xmlns="http://www.w3.org/2000/svg">
<path d="M19.5 3.25C10.53 3.25 3.25 10.53 3.25 19.5C3.25 28.47 10.53 35.75 19.5 35.75H27.625V32.5H19.5C12.4475 32.5 6.5 26.5525 6.5 19.5C6.5 12.4475 12.4475 6.5 19.5 6.5C26.5525 6.5 32.5 12.4475 32.5 19.5V21.8238C32.5 23.1075 31.3463 24.375 30.0625 24.375C28.7787 24.375 27.625 23.1075 27.625 21.8238V19.5C27.625 15.015 23.985 11.375 19.5 11.375C15.015 11.375 11.375 15.015 11.375 19.5C11.375 23.985 15.015 27.625 19.5 27.625C21.7425 27.625 23.79 26.715 25.2525 25.2363C26.3088 26.6825 28.1287 27.625 30.0625 27.625C33.2638 27.625 35.75 25.025 35.75 21.8238V19.5C35.75 10.53 28.47 3.25 19.5 3.25ZM19.5 24.375C16.8025 24.375 14.625 22.1975 14.625 19.5C14.625 16.8025 16.8025 14.625 19.5 14.625C22.1975 14.625 24.375 16.8025 24.375 19.5C24.375 22.1975 22.1975 24.375 19.5 24.375Z" fill="#9F0006"/>
</svg>
