<svg width="39" height="39" viewBox="0 0 39 39" fill="none" xmlns="http://www.w3.org/2000/svg">
<path d="M13 4.875C8.51988 4.875 4.875 8.51988 4.875 13V26C4.875 30.4801 8.51988 34.125 13 34.125H26C30.4801 34.125 34.125 30.4801 34.125 26V13C34.125 8.51988 30.4801 4.875 26 4.875H13ZM13 8.125H26C28.6877 8.125 30.875 10.3123 30.875 13V26C30.875 28.6877 28.6877 30.875 26 30.875H13C10.3123 30.875 8.125 28.6877 8.125 26V13C8.125 10.3123 10.3123 8.125 13 8.125ZM27.625 9.75C27.194 9.75 26.7807 9.92121 26.476 10.226C26.1712 10.5307 26 10.944 26 11.375C26 11.806 26.1712 12.2193 26.476 12.524C26.7807 12.8288 27.194 13 27.625 13C28.056 13 28.4693 12.8288 28.774 12.524C29.0788 12.2193 29.25 11.806 29.25 11.375C29.25 10.944 29.0788 10.5307 28.774 10.226C28.4693 9.92121 28.056 9.75 27.625 9.75ZM19.5 11.375C15.0199 11.375 11.375 15.0199 11.375 19.5C11.375 23.9801 15.0199 27.625 19.5 27.625C23.9801 27.625 27.625 23.9801 27.625 19.5C27.625 15.0199 23.9801 11.375 19.5 11.375ZM19.5 14.625C22.1877 14.625 24.375 16.8123 24.375 19.5C24.375 22.1877 22.1877 24.375 19.5 24.375C16.8123 24.375 14.625 22.1877 14.625 19.5C14.625 16.8123 16.8123 14.625 19.5 14.625Z" fill="#9F0006"/>
</svg>
