<svg width="112" height="72" viewBox="0 0 112 72" fill="none" xmlns="http://www.w3.org/2000/svg">
<circle cx="56" cy="47" r="25" transform="rotate(-90 56 47)" fill="#9F0006"/>
<path d="M60.1457 59.2915L63 56.4373L53.7287 47.1458L63 37.8543L60.1457 35L48 47.1458L60.1457 59.2915Z" fill="white"/>
<path d="M0.607173 16H1.97517V9.709H4.45917C5.43117 9.709 6.27117 9.526 6.97917 9.16C7.69317 8.794 8.24217 8.284 8.62617 7.63C9.01017 6.976 9.20217 6.214 9.20217 5.344C9.20217 4.036 8.77617 3.01 7.92417 2.266C7.07217 1.522 5.91717 1.15 4.45917 1.15H0.607173V16ZM1.97517 8.557V2.266H4.13517C5.24517 2.266 6.13317 2.539 6.79917 3.085C7.46517 3.625 7.79817 4.39 7.79817 5.38C7.79817 6.358 7.46517 7.132 6.79917 7.702C6.13317 8.272 5.24517 8.557 4.13517 8.557H1.97517ZM14.1464 16H15.4604V9.916C15.4604 9.526 15.5774 9.16 15.8114 8.818C16.0514 8.47 16.3604 8.188 16.7384 7.972C17.1224 7.756 17.5244 7.648 17.9444 7.648C18.4064 7.648 18.8324 7.741 19.2224 7.927L19.7624 6.82C19.3124 6.604 18.7964 6.496 18.2144 6.496C16.9724 6.496 16.0544 7.045 15.4604 8.143V6.784H14.1464V16ZM28.6772 16.288C29.5952 16.288 30.4292 16.09 31.1792 15.694C31.9352 15.298 32.5322 14.743 32.9702 14.029L31.9982 13.507C31.2302 14.635 30.1412 15.199 28.7312 15.199C27.9992 15.199 27.3482 15.043 26.7782 14.731C26.2082 14.413 25.7612 13.978 25.4372 13.426C25.1192 12.868 24.9602 12.232 24.9602 11.518H33.2582C33.2702 11.452 33.2762 11.395 33.2762 11.347C33.2822 11.299 33.2852 11.242 33.2852 11.176C33.2612 10.258 33.0392 9.448 32.6192 8.746C32.2052 8.038 31.6412 7.486 30.9272 7.09C30.2192 6.694 29.4092 6.496 28.4972 6.496C27.8312 6.496 27.2042 6.622 26.6162 6.874C26.0342 7.126 25.5212 7.477 25.0772 7.927C24.6332 8.377 24.2852 8.902 24.0332 9.502C23.7812 10.096 23.6552 10.738 23.6552 11.428C23.6552 12.346 23.8712 13.174 24.3032 13.912C24.7412 14.644 25.3382 15.223 26.0942 15.649C26.8502 16.075 27.7112 16.288 28.6772 16.288ZM25.0322 10.528C25.1102 9.946 25.3082 9.436 25.6262 8.998C25.9502 8.554 26.3612 8.209 26.8592 7.963C27.3572 7.711 27.9092 7.585 28.5152 7.585C29.1092 7.585 29.6522 7.711 30.1442 7.963C30.6362 8.215 31.0442 8.563 31.3682 9.007C31.6922 9.451 31.8932 9.958 31.9712 10.528H25.0322ZM28.3712 5.506L30.4412 2.338L29.4062 1.6L27.6962 5.011L28.3712 5.506ZM42.8246 16.288C43.4366 16.288 44.0126 16.195 44.5526 16.009C45.0926 15.829 45.5636 15.583 45.9656 15.271L45.4166 14.389C44.7566 14.911 43.9466 15.172 42.9866 15.172C42.2366 15.172 41.5736 15.007 40.9976 14.677C40.4276 14.347 39.9806 13.897 39.6566 13.327C39.3326 12.757 39.1706 12.112 39.1706 11.392C39.1706 10.684 39.3296 10.045 39.6476 9.475C39.9656 8.905 40.4096 8.452 40.9796 8.116C41.5556 7.78 42.2216 7.612 42.9776 7.612C43.9316 7.612 44.7476 7.873 45.4256 8.395L45.9656 7.513C45.5696 7.195 45.0986 6.946 44.5526 6.766C44.0066 6.586 43.4306 6.496 42.8246 6.496C41.8826 6.496 41.0336 6.712 40.2776 7.144C39.5216 7.57 38.9246 8.152 38.4866 8.89C38.0486 9.628 37.8296 10.462 37.8296 11.392C37.8296 12.328 38.0516 13.165 38.4956 13.903C38.9456 14.641 39.5486 15.223 40.3046 15.649C41.0606 16.075 41.9006 16.288 42.8246 16.288ZM55.3038 16.288C56.2218 16.288 57.0558 16.09 57.8058 15.694C58.5618 15.298 59.1588 14.743 59.5968 14.029L58.6248 13.507C57.8568 14.635 56.7678 15.199 55.3578 15.199C54.6258 15.199 53.9748 15.043 53.4048 14.731C52.8348 14.413 52.3878 13.978 52.0638 13.426C51.7458 12.868 51.5868 12.232 51.5868 11.518H59.8848C59.8968 11.452 59.9028 11.395 59.9028 11.347C59.9088 11.299 59.9118 11.242 59.9118 11.176C59.8878 10.258 59.6658 9.448 59.2458 8.746C58.8318 8.038 58.2678 7.486 57.5538 7.09C56.8458 6.694 56.0358 6.496 55.1238 6.496C54.4578 6.496 53.8308 6.622 53.2428 6.874C52.6608 7.126 52.1478 7.477 51.7038 7.927C51.2598 8.377 50.9118 8.902 50.6598 9.502C50.4078 10.096 50.2818 10.738 50.2818 11.428C50.2818 12.346 50.4978 13.174 50.9298 13.912C51.3678 14.644 51.9648 15.223 52.7208 15.649C53.4768 16.075 54.3378 16.288 55.3038 16.288ZM51.6588 10.528C51.7368 9.946 51.9348 9.436 52.2528 8.998C52.5768 8.554 52.9878 8.209 53.4858 7.963C53.9838 7.711 54.5358 7.585 55.1418 7.585C55.7358 7.585 56.2788 7.711 56.7708 7.963C57.2628 8.215 57.6708 8.563 57.9948 9.007C58.3188 9.451 58.5198 9.958 58.5978 10.528H51.6588ZM54.9978 5.506L57.0678 2.338L56.0328 1.6L54.3228 5.011L54.9978 5.506ZM69.1003 16.288C69.9163 16.288 70.6573 16.09 71.3233 15.694C71.9953 15.298 72.5263 14.752 72.9163 14.056V16H74.2303V0.510999H72.9163V8.701C72.5383 8.011 72.0163 7.471 71.3503 7.081C70.6843 6.691 69.9403 6.496 69.1183 6.496C68.2363 6.496 67.4473 6.709 66.7513 7.135C66.0613 7.555 65.5153 8.134 65.1133 8.872C64.7113 9.61 64.5103 10.45 64.5103 11.392C64.5103 12.34 64.7113 13.183 65.1133 13.921C65.5213 14.659 66.0703 15.238 66.7603 15.658C67.4563 16.078 68.2363 16.288 69.1003 16.288ZM69.4153 15.145C68.7253 15.145 68.1133 14.983 67.5793 14.659C67.0453 14.335 66.6253 13.891 66.3193 13.327C66.0193 12.763 65.8693 12.121 65.8693 11.401C65.8693 10.669 66.0223 10.021 66.3283 9.457C66.6343 8.887 67.0543 8.443 67.5883 8.125C68.1223 7.801 68.7343 7.639 69.4243 7.639C70.1143 7.639 70.7233 7.801 71.2513 8.125C71.7853 8.443 72.2053 8.887 72.5113 9.457C72.8173 10.021 72.9703 10.669 72.9703 11.401C72.9703 12.127 72.8173 12.772 72.5113 13.336C72.2053 13.9 71.7853 14.344 71.2513 14.668C70.7173 14.986 70.1053 15.145 69.4153 15.145ZM84.5848 16.288C85.5028 16.288 86.3368 16.09 87.0868 15.694C87.8428 15.298 88.4398 14.743 88.8778 14.029L87.9058 13.507C87.1378 14.635 86.0488 15.199 84.6388 15.199C83.9068 15.199 83.2558 15.043 82.6858 14.731C82.1158 14.413 81.6688 13.978 81.3448 13.426C81.0268 12.868 80.8678 12.232 80.8678 11.518H89.1658C89.1778 11.452 89.1838 11.395 89.1838 11.347C89.1898 11.299 89.1928 11.242 89.1928 11.176C89.1688 10.258 88.9468 9.448 88.5268 8.746C88.1128 8.038 87.5488 7.486 86.8348 7.09C86.1268 6.694 85.3168 6.496 84.4048 6.496C83.7388 6.496 83.1118 6.622 82.5238 6.874C81.9418 7.126 81.4288 7.477 80.9848 7.927C80.5408 8.377 80.1928 8.902 79.9408 9.502C79.6888 10.096 79.5628 10.738 79.5628 11.428C79.5628 12.346 79.7788 13.174 80.2108 13.912C80.6488 14.644 81.2458 15.223 82.0018 15.649C82.7578 16.075 83.6188 16.288 84.5848 16.288ZM80.9398 10.528C81.0178 9.946 81.2158 9.436 81.5338 8.998C81.8578 8.554 82.2688 8.209 82.7668 7.963C83.2648 7.711 83.8168 7.585 84.4228 7.585C85.0168 7.585 85.5598 7.711 86.0518 7.963C86.5438 8.215 86.9518 8.563 87.2758 9.007C87.5998 9.451 87.8008 9.958 87.8788 10.528H80.9398ZM94.4131 16H95.7271V9.997C95.7271 9.565 95.8321 9.166 96.0421 8.8C96.2581 8.428 96.5671 8.131 96.9691 7.909C97.3711 7.681 97.8541 7.567 98.4181 7.567C99.2221 7.567 99.8461 7.819 100.29 8.323C100.74 8.827 100.965 9.553 100.965 10.501V16H102.279V10.249C102.279 9.061 101.97 8.14 101.352 7.486C100.74 6.826 99.9001 6.496 98.8321 6.496C98.0701 6.496 97.4221 6.646 96.8881 6.946C96.3601 7.246 95.9731 7.612 95.7271 8.044V6.784H94.4131V16ZM110.329 16.288C110.917 16.288 111.433 16.15 111.877 15.874L111.544 14.83C111.28 15.028 110.968 15.127 110.608 15.127C109.846 15.127 109.465 14.602 109.465 13.552V7.774H111.76V6.784H109.465V3.337H108.151V6.784H107.215V7.774H108.151V13.624C108.151 14.47 108.34 15.127 108.718 15.595C109.102 16.057 109.639 16.288 110.329 16.288Z" fill="black"/>
</svg>
