<svg width="63" height="75" viewBox="0 0 63 75" fill="none" xmlns="http://www.w3.org/2000/svg">
<circle cx="32" cy="50" r="25" transform="rotate(90 32 50)" fill="#9F0006"/>
<path d="M27.8543 38L25 40.8543L34.2713 50.1457L25 59.4372L27.8543 62.2915L40 50.1457L27.8543 38Z" fill="white"/>
<path d="M5.52818 16.288C6.42818 16.288 7.23518 16.126 7.94918 15.802C8.66918 15.472 9.23618 14.995 9.65018 14.371C10.0702 13.747 10.2802 12.991 10.2802 12.103C10.2802 11.419 10.1572 10.84 9.91118 10.366C9.66518 9.892 9.32918 9.49 8.90318 9.16C8.48318 8.824 8.00618 8.536 7.47218 8.296C6.93818 8.05 6.38018 7.819 5.79818 7.603C5.33618 7.435 4.87718 7.249 4.42118 7.045C3.97118 6.835 3.59618 6.562 3.29618 6.226C3.00218 5.884 2.85518 5.431 2.85518 4.867C2.85518 4.405 2.96618 3.967 3.18818 3.553C3.41018 3.133 3.73418 2.791 4.16018 2.527C4.59218 2.263 5.11418 2.131 5.72618 2.131C6.45818 2.131 7.09418 2.302 7.63418 2.644C8.18018 2.986 8.57918 3.364 8.83118 3.778L9.53318 2.833C9.32918 2.515 9.03818 2.209 8.66018 1.915C8.28818 1.615 7.85318 1.369 7.35518 1.177C6.85718 0.978999 6.31118 0.879999 5.71718 0.879999C4.89518 0.879999 4.16918 1.063 3.53918 1.429C2.91518 1.795 2.42618 2.281 2.07218 2.887C1.72418 3.487 1.55018 4.147 1.55018 4.867C1.55018 5.443 1.65518 5.935 1.86518 6.343C2.08118 6.751 2.36018 7.096 2.70218 7.378C3.04418 7.66 3.41018 7.897 3.80018 8.089C4.19618 8.281 4.57418 8.446 4.93418 8.584C5.62418 8.842 6.26618 9.112 6.86018 9.394C7.45418 9.67 7.93118 10.021 8.29118 10.447C8.65718 10.873 8.84018 11.44 8.84018 12.148C8.84018 12.778 8.69018 13.306 8.39018 13.732C8.09018 14.158 7.69118 14.479 7.19318 14.695C6.70118 14.911 6.15518 15.019 5.55518 15.019C4.92518 15.019 4.37018 14.92 3.89018 14.722C3.41018 14.518 2.99918 14.272 2.65718 13.984C2.31518 13.69 2.03318 13.402 1.81118 13.12C1.59518 12.832 1.43318 12.604 1.32518 12.436L0.542181 13.444C0.638181 13.606 0.806181 13.843 1.04618 14.155C1.29218 14.461 1.61918 14.779 2.02718 15.109C2.43518 15.433 2.92718 15.712 3.50318 15.946C4.08518 16.174 4.76018 16.288 5.52818 16.288ZM16.2849 16.288C17.6829 16.288 18.6819 15.976 19.2819 15.352C19.8819 14.722 20.1819 13.666 20.1819 12.184V6.784H18.8679V11.95C18.8679 13.114 18.6699 13.945 18.2739 14.443C17.8839 14.935 17.2209 15.181 16.2849 15.181C15.3549 15.181 14.6919 14.935 14.2959 14.443C13.8999 13.945 13.7019 13.114 13.7019 11.95V6.784H12.3879V12.184C12.3879 13.666 12.6879 14.722 13.2879 15.352C13.8879 15.976 14.8869 16.288 16.2849 16.288ZM23.4648 4.939C23.7048 4.939 23.9088 4.855 24.0768 4.687C24.2448 4.519 24.3288 4.315 24.3288 4.075C24.3288 3.835 24.2448 3.634 24.0768 3.472C23.9088 3.304 23.7048 3.22 23.4648 3.22C23.2248 3.22 23.0208 3.304 22.8528 3.472C22.6908 3.634 22.6098 3.835 22.6098 4.075C22.6098 4.315 22.6908 4.519 22.8528 4.687C23.0208 4.855 23.2248 4.939 23.4648 4.939ZM22.8078 16H24.1218V6.784H22.8078V16ZM29.9308 16H30.7948L35.2768 6.784H33.7378L30.3628 14.128L26.9968 6.784H25.4578L29.9308 16ZM40.5155 16.288C41.3315 16.288 42.0725 16.09 42.7385 15.694C43.4045 15.298 43.9355 14.752 44.3315 14.056V16H45.6455V6.784H44.3315V8.701C43.9835 8.011 43.4675 7.471 42.7835 7.081C42.1055 6.691 41.3495 6.496 40.5155 6.496C39.6395 6.496 38.8535 6.709 38.1575 7.135C37.4675 7.555 36.9215 8.134 36.5195 8.872C36.1235 9.61 35.9255 10.447 35.9255 11.383C35.9255 12.331 36.1265 13.174 36.5285 13.912C36.9365 14.65 37.4855 15.232 38.1755 15.658C38.8655 16.078 39.6455 16.288 40.5155 16.288ZM40.8395 15.145C40.1555 15.145 39.5435 14.983 39.0035 14.659C38.4695 14.335 38.0495 13.891 37.7435 13.327C37.4375 12.763 37.2845 12.118 37.2845 11.392C37.2845 10.66 37.4375 10.012 37.7435 9.448C38.0495 8.884 38.4695 8.443 39.0035 8.125C39.5375 7.801 40.1495 7.639 40.8395 7.639C41.5295 7.639 42.1415 7.801 42.6755 8.125C43.2095 8.443 43.6265 8.884 43.9265 9.448C44.2325 10.012 44.3855 10.66 44.3855 11.392C44.3855 12.118 44.2325 12.766 43.9265 13.336C43.6205 13.9 43.2005 14.344 42.6665 14.668C42.1385 14.986 41.5295 15.145 40.8395 15.145ZM48.44 16H49.754V9.997C49.754 9.565 49.859 9.166 50.069 8.8C50.285 8.428 50.594 8.131 50.996 7.909C51.398 7.681 51.881 7.567 52.445 7.567C53.249 7.567 53.873 7.819 54.317 8.323C54.767 8.827 54.992 9.553 54.992 10.501V16H56.306V10.249C56.306 9.061 55.997 8.14 55.379 7.486C54.767 6.826 53.927 6.496 52.859 6.496C52.097 6.496 51.449 6.646 50.915 6.946C50.387 7.246 50 7.612 49.754 8.044V6.784H48.44V16ZM61.116 16.288C61.704 16.288 62.22 16.15 62.664 15.874L62.331 14.83C62.067 15.028 61.755 15.127 61.395 15.127C60.633 15.127 60.252 14.602 60.252 13.552V7.774H62.547V6.784H60.252V3.337H58.938V6.784H58.002V7.774H58.938V13.624C58.938 14.47 59.127 15.127 59.505 15.595C59.889 16.057 60.426 16.288 61.116 16.288Z" fill="black"/>
</svg>
