<svg width="40" height="40" viewBox="0 0 40 40" fill="none" xmlns="http://www.w3.org/2000/svg">
<path d="M19.4043 3.34628C12.8027 3.66232 7.5 9.1492 7.5 15.8333C7.5 19.9786 9.80081 23.2515 11.9499 26.2825C14.0989 29.3134 16.1348 32.1564 16.5755 35.332C16.8083 37.0182 18.2694 38.3333 19.9967 38.3333H20.0033C21.7046 38.3333 23.1921 37.0651 23.4212 35.358C23.911 31.7519 26.4843 28.5793 28.8965 25.0715C31.3086 21.5637 33.5296 17.4126 31.9596 12.399C30.4082 7.44322 26.0173 3.65966 20.7422 3.35279C20.2917 3.32671 19.8444 3.32521 19.4043 3.34628ZM19.5605 6.67636C19.6184 6.67369 19.6782 6.67796 19.7363 6.67636L16.4062 10.5989L14.3099 8.63599C15.7631 7.48782 17.5741 6.76796 19.5605 6.67636ZM23.4863 7.41529C25.5388 8.32053 27.2552 9.98768 28.2585 12.0767L26.2858 14.414C26.012 13.5879 25.601 12.8021 24.9967 12.1223C24.0777 11.0884 22.6754 10.4744 21.1003 10.2245L23.4863 7.41529ZM12.1159 11.149L14.248 13.1412L10.9408 17.0344C10.8765 16.6368 10.8333 16.2381 10.8333 15.8333C10.8333 14.1176 11.3048 12.5188 12.1159 11.149ZM20 13.3333C21.25 13.3333 21.9754 13.742 22.5033 14.3359C23.0311 14.9297 23.3333 15.787 23.3333 16.6666C23.3333 17.4763 23.0207 18.228 22.5684 18.8118L22.3665 19.0527C21.8461 19.5943 21.1816 19.9999 20 19.9999C18.75 19.9999 18.0246 19.5912 17.4967 18.9973C16.9689 18.4035 16.6667 17.5462 16.6667 16.6666C16.6667 15.8715 16.9815 15.1409 17.4186 14.5605L17.6628 14.2675C18.1815 13.7371 18.8332 13.3333 20 13.3333ZM29.1667 16.1685C29.0786 18.6025 27.8283 20.7415 26.1491 23.1835C23.8646 26.5057 20.7724 30.0881 20.1172 34.912C20.1096 34.9683 20.0786 34.9999 20.0033 34.9999H19.9967C19.9207 34.9999 19.8902 34.9766 19.8763 34.8762V34.873C19.5961 32.8543 18.879 31.0595 17.9818 29.4042L24.7656 21.3769C24.8306 21.3105 24.9354 21.2798 24.9967 21.2109C25.0915 21.1043 25.1187 20.9642 25.2051 20.8528L29.1667 16.1685ZM13.7142 18.9159C13.9879 19.7432 14.3983 20.5303 15.0033 21.2109C15.9288 22.2521 17.3426 22.8707 18.9323 23.1152L16.1328 26.4322C15.6434 25.7218 15.1456 25.0257 14.668 24.3521C13.7472 23.0535 12.9354 21.8245 12.2754 20.6087L13.7142 18.9159Z" fill="white"/>
</svg>
