<svg width="30" height="32" viewBox="0 0 30 32" fill="none" xmlns="http://www.w3.org/2000/svg">
<path d="M20 27.0735C15.8167 27.0735 12.2 24.6498 10.4 21.0995H20V17.6858H9.3C9.21667 17.1226 9.16667 16.5593 9.16667 15.979C9.16667 15.3987 9.21667 14.8354 9.3 14.2722H20V10.8585H10.4C12.2 7.30825 15.8333 4.88454 20 4.88454C22.6833 4.88454 25.15 5.89157 27.05 7.56428L30 4.54317C27.35 2.10238 23.8333 0.617432 20 0.617432C13.4667 0.617432 7.93333 4.9016 5.86667 10.8585H0V14.2722H5.1C5.03333 14.8354 5 15.3987 5 15.979C5 16.5593 5.03333 17.1226 5.1 17.6858H0V21.0995H5.86667C7.93333 27.0564 13.4667 31.3406 20 31.3406C23.85 31.3406 27.35 29.8556 30 27.4148L27.0333 24.3937C25.15 26.0664 22.7 27.0735 20 27.0735Z" fill="#9F0006"/>
</svg>
