<svg width="50" height="50" viewBox="0 0 50 50" fill="none" xmlns="http://www.w3.org/2000/svg">
<path d="M24.2554 4.18286C16.0034 4.57791 9.375 11.4365 9.375 19.7916C9.375 24.9733 12.251 29.0644 14.9373 32.8531C17.6237 36.6418 20.1685 40.1955 20.7194 44.165C21.0104 46.2728 22.8368 47.9166 24.9959 47.9166H25.0041C27.1307 47.9166 28.9901 46.3314 29.2765 44.1975C29.8888 39.6899 33.1054 35.7242 36.1206 31.3394C39.1358 26.9547 41.912 21.7658 39.9496 15.4988C38.0103 9.30404 32.5217 4.5746 25.9277 4.191C25.3647 4.15841 24.8055 4.15653 24.2554 4.18286ZM24.4507 8.34546C24.523 8.34213 24.5977 8.34747 24.6704 8.34546L20.5078 13.2486L17.8874 10.795C19.7038 9.35979 21.9677 8.45997 24.4507 8.34546ZM29.3579 9.26913C31.9235 10.4007 34.069 12.4846 35.3231 15.096L32.8573 18.0175C32.515 16.9849 32.0012 16.0026 31.2459 15.1529C30.0971 13.8605 28.3442 13.093 26.3753 12.7807L29.3579 9.26913ZM15.1449 13.9363L17.8101 16.4265L13.6759 21.2931C13.5956 20.7961 13.5417 20.2977 13.5417 19.7916C13.5417 17.647 14.131 15.6485 15.1449 13.9363ZM25 16.6666C26.5625 16.6666 27.4692 17.1775 28.1291 17.9198C28.7889 18.6622 29.1667 19.7337 29.1667 20.8333C29.1667 21.8454 28.7758 22.7851 28.2105 23.5147L27.9582 23.8158C27.3076 24.4929 26.477 24.9999 25 24.9999C23.4375 24.9999 22.5308 24.489 21.8709 23.7467C21.2111 23.0043 20.8333 21.9328 20.8333 20.8333C20.8333 19.8394 21.2269 18.9262 21.7733 18.2006L22.0785 17.8344C22.7269 17.1713 23.5415 16.6666 25 16.6666ZM36.4583 20.2107C36.3482 23.2531 34.7854 25.9269 32.6864 28.9794C29.8307 33.1322 25.9655 37.6102 25.1465 43.6401C25.1371 43.7104 25.0982 43.7499 25.0041 43.7499H24.9959C24.9009 43.7499 24.8627 43.7208 24.8454 43.5953V43.5912C24.4952 41.0678 23.5988 38.8244 22.4772 36.7553L30.957 26.7211C31.0382 26.6382 31.1693 26.5998 31.2459 26.5136C31.3644 26.3803 31.3984 26.2052 31.5064 26.066L36.4583 20.2107ZM17.1427 23.6449C17.4849 24.679 17.9979 25.6629 18.7541 26.5136C19.911 27.8151 21.6783 28.5883 23.6654 28.894L20.166 33.0403C19.5542 32.1523 18.9319 31.2822 18.335 30.4402C17.184 28.8169 16.1693 27.2806 15.3442 25.7608L17.1427 23.6449Z" fill="#9F0006"/>
</svg>
