<svg width="39" height="39" viewBox="0 0 39 39" fill="none" xmlns="http://www.w3.org/2000/svg">
<path d="M10.3601 3.25C8.12568 3.25 4.87568 5.6875 4.06318 7.3125C2.9013 9.63625 3.09305 10.5462 3.86005 13C4.87568 16.25 7.85268 22.0106 11.9851 26C17.8757 31.6875 23.3601 34.125 25.7976 34.9375C28.2351 35.75 30.8757 34.9375 32.5007 33.3125C34.1257 31.6875 35.7507 30.0625 33.9226 27.625C32.6274 25.8976 30.7392 23.9005 28.4382 22.75C26.3452 21.7035 25.0972 22.0837 24.3757 23.5625C23.9759 24.3799 23.8524 25.9447 23.5632 26.8125C23.1976 27.9077 21.7351 27.625 20.1101 26.8125C18.5549 26.0341 14.6257 22.75 11.3757 17.875C9.36068 14.8541 12.5814 14.8362 14.6257 13.8125C16.2507 13 16.7544 11.1312 15.4382 8.9375C13.0007 4.875 12.1882 3.25 10.3601 3.25Z" stroke="#9F0006" stroke-width="3.33333"/>
</svg>
