<svg width="39" height="39" xmlns="http://www.w3.org/2000/svg" fill="none">

 <g>
  <title>Layer 1</title>
  <g>
   <path fill="#9F0006" d="m8.22222,5c-1.77705,0 -3.22222,1.44517 -3.22222,3.22222l0,22.55558c0,1.777 1.44517,3.2222 3.22222,3.2222l10.66728,0l4.4998,0l7.3885,0c1.777,0 3.2222,-1.4452 3.2222,-3.2222l0,-22.55558c0,-1.77705 -1.4452,-3.22222 -3.2222,-3.22222l-22.55558,0zm0,3.22222l22.55558,0l0.0031,22.55558l-7.3916,0l0,-6.3878l3.8107,0l0.5664,-4.3897l-4.3519,0l0,-2.7974c0,-1.2695 0.3538,-2.1272 2.1744,-2.1272l2.3002,0l0,-3.91761c-1.1197,-0.11438 -2.2439,-0.16999 -3.3701,-0.16677c-3.3415,0 -5.6295,2.03941 -5.6295,5.78368l0,3.2316l-3.776,0l0,4.3897l3.776,0l0,6.3815l-10.66728,0l0,-22.55558z"/>
  </g>
 </g>
</svg>