<svg width="39" height="39" viewBox="0 0 39 39" fill="none" xmlns="http://www.w3.org/2000/svg">
<path d="M18.9192 3.26272C12.4827 3.57086 7.3125 8.92057 7.3125 15.4375C7.3125 19.4792 9.55579 22.6703 11.6511 25.6255C13.7465 28.5807 15.7314 31.3526 16.1611 34.4488C16.3881 36.0929 17.8127 37.375 19.4968 37.375H19.5032C21.162 37.375 22.6123 36.1386 22.8357 34.4742C23.3132 30.9582 25.8222 27.865 28.1741 24.4449C30.5259 21.0248 32.6914 16.9774 31.1606 12.0891C29.648 7.25724 25.3669 3.56827 20.2236 3.26907C19.7844 3.24365 19.3483 3.24218 18.9192 3.26272ZM19.0715 6.50955C19.1279 6.50695 19.1862 6.51112 19.2429 6.50955L15.9961 10.334L13.9521 8.42019C15.369 7.30072 17.1348 6.59887 19.0715 6.50955ZM22.8992 7.23001C24.9004 8.11262 26.5738 9.73809 27.552 11.7749L25.6287 14.0537C25.3617 13.2483 24.9609 12.4821 24.3718 11.8194C23.4758 10.8113 22.1085 10.2126 20.5728 9.96902L22.8992 7.23001ZM11.813 10.8704L13.8918 12.8128L10.6672 16.6087C10.6046 16.221 10.5625 15.8323 10.5625 15.4375C10.5625 13.7648 11.0222 12.2059 11.813 10.8704ZM19.5 13C20.7187 13 21.426 13.3986 21.9407 13.9776C22.4554 14.5566 22.75 15.3924 22.75 16.25C22.75 17.0395 22.4452 17.7724 22.0042 18.3416L21.8074 18.5764C21.2999 19.1046 20.6521 19.5 19.5 19.5C18.2813 19.5 17.574 19.1015 17.0593 18.5225C16.5446 17.9435 16.25 17.1077 16.25 16.25C16.25 15.4748 16.557 14.7625 16.9832 14.1966L17.2212 13.9109C17.727 13.3937 18.3624 13 19.5 13ZM28.4375 15.7644C28.3516 18.1375 27.1326 20.2231 25.4954 22.604C23.268 25.8432 20.2531 29.336 19.6143 34.0393C19.6069 34.0942 19.5766 34.125 19.5032 34.125H19.4968C19.4227 34.125 19.3929 34.1023 19.3794 34.0044V34.0013C19.1062 32.033 18.407 30.2831 17.5322 28.6692L24.1465 20.8426C24.2098 20.7779 24.312 20.748 24.3718 20.6807C24.4642 20.5768 24.4907 20.4402 24.575 20.3316L28.4375 15.7644ZM13.3713 18.4431C13.6382 19.2497 14.0383 20.0171 14.6282 20.6807C15.5306 21.6959 16.9091 22.299 18.459 22.5374L15.7295 25.7715C15.2523 25.0789 14.7669 24.4002 14.3013 23.7434C13.4035 22.4772 12.612 21.279 11.9685 20.0935L13.3713 18.4431Z" fill="#9F0006"/>
</svg>
