<svg width="40" height="40" viewBox="0 0 40 40" fill="none" xmlns="http://www.w3.org/2000/svg">
<path d="M20.0007 3.33337C10.8007 3.33337 3.33398 10.8 3.33398 20C3.33398 29.2 10.8007 36.6667 20.0007 36.6667H28.334V33.3334H20.0007C12.7673 33.3334 6.66732 27.2334 6.66732 20C6.66732 12.7667 12.7673 6.66671 20.0007 6.66671C27.234 6.66671 33.334 12.7667 33.334 20V22.3834C33.334 23.7 32.1507 25 30.834 25C29.5173 25 28.334 23.7 28.334 22.3834V20C28.334 15.4 24.6007 11.6667 20.0007 11.6667C15.4007 11.6667 11.6673 15.4 11.6673 20C11.6673 24.6 15.4007 28.3334 20.0007 28.3334C22.3007 28.3334 24.4007 27.4 25.9007 25.8834C26.984 27.3667 28.8507 28.3334 30.834 28.3334C34.1173 28.3334 36.6673 25.6667 36.6673 22.3834V20C36.6673 10.8 29.2007 3.33337 20.0007 3.33337ZM20.0007 25C17.234 25 15.0007 22.7667 15.0007 20C15.0007 17.2334 17.234 15 20.0007 15C22.7673 15 25.0007 17.2334 25.0007 20C25.0007 22.7667 22.7673 25 20.0007 25Z" fill="white"/>
</svg>
