<?xml version="1.0" encoding="utf-8"?>
<!-- Generator: Adobe Illustrator 25.4.1, SVG Export Plug-In . SVG Version: 6.00 Build 0)  -->
<svg version="1.1" id="Calque_1" xmlns="http://www.w3.org/2000/svg" xmlns:xlink="http://www.w3.org/1999/xlink" x="0px" y="0px"
	 viewBox="0 0 50 50" style="enable-background:new 0 0 50 50;" xml:space="preserve">
<style type="text/css">
	.st0{fill:none;stroke:#9F0006;stroke-width:3.3333;}
</style>
<path class="st0" d="M12.6,1.9c-3.2,0-8,3.5-9.1,5.9C1.7,11.1,2,12.5,3.1,16c1.5,4.7,5.8,13.1,11.8,18.9c8.5,8.2,16.5,11.8,20,13
	s7.4,0,9.7-2.4c2.4-2.4,4.7-4.7,2.1-8.2c-1.9-2.5-4.6-5.4-8-7.1c-3-1.5-4.8-1-5.9,1.2c-0.6,1.2-0.8,3.5-1.2,4.7
	c-0.5,1.6-2.7,1.2-5,0c-2.3-1.1-8-5.9-12.7-13c-2.9-4.4,1.7-4.4,4.7-5.9c2.4-1.2,3.1-3.9,1.2-7.1C16.4,4.2,15.2,1.9,12.6,1.9z"/>
</svg>
