<?xml version="1.0" encoding="UTF-8"?>
<svg xmlns="http://www.w3.org/2000/svg" xmlns:xlink="http://www.w3.org/1999/xlink" width="50px" height="50px" viewBox="0 0 50 50" version="1.1">
<g id="surface1">
<path style="fill:none;stroke-width:3.33333;stroke-linecap:butt;stroke-linejoin:miter;stroke:rgb(62.352941%,0%,2.352941%);stroke-opacity:1;stroke-miterlimit:4;" d="M 10.359375 3.251016 C 8.126016 3.251016 4.875 5.688516 4.064531 7.3125 C 2.900625 9.637266 3.092578 10.545234 3.860391 13.001016 C 4.875 16.248984 7.851797 22.010625 11.986406 25.998984 C 17.876016 31.6875 23.360391 34.125 25.797891 34.938516 C 28.235391 35.748984 30.877031 34.938516 32.501016 33.311484 C 34.125 31.6875 35.752031 30.063516 33.923906 27.626016 C 32.625937 25.898437 30.739922 23.899687 28.439531 22.751016 C 26.346328 21.702891 25.097109 22.08375 24.375 23.561484 C 23.975859 24.381094 23.850937 25.944141 23.564531 26.8125 C 23.198906 27.906328 21.736406 27.626016 20.109375 26.8125 C 18.555469 26.035547 14.625 22.751016 11.377031 17.876016 C 9.36 14.853516 12.580547 14.835234 14.625 13.811484 C 16.252031 13.001016 16.754766 11.130234 15.438516 8.936484 C 13.001016 4.875 12.1875 3.251016 10.359375 3.251016 Z M 10.359375 3.251016 " transform="matrix(1.282051,0,0,1.282051,0,0)"/>
</g>
</svg>
